<svg xmlns="http://www.w3.org/2000/svg" xmlns:xlink="http://www.w3.org/1999/xlink" version="1.1" id="Layer_1" x="0px" y="0px" viewBox="0 0 245 50" style="enable-background:new 0 0 245 50;" xml:space="preserve" width="183.328" height="37.413877551020406">
<style type="text/css">
	.st0{fill:#FF181E;}
	.st1{fill:#9A9A9A;}
</style>
<g>
	<g>
		<path class="st0" d="M69.9,11.2h15.4v36H69.9V39L61,49c-8.8,0-19.9-7.7-19.9-19.9C41.1,16.9,51.4,9.2,61,9.2l8.9,10V11.2z     M56.5,29.1c0,3.7,3,6.7,6.7,6.7c3.7,0,6.7-3,6.7-6.7c0-3.7-3-6.7-6.7-6.7C59.5,22.5,56.5,25.4,56.5,29.1z"></path>
		<g>
			<polygon class="st0" points="136.2,11.2 89.4,11.2 89.4,24.5 106.4,24.5 89.4,41.1 89.4,47.1 131,47.1 131,33.7 112.9,33.7         "></polygon>
			<polygon class="st0" points="177.8,16.2 177.8,11.2 136.2,11.2 136.2,24.5 153.3,24.5 130,47.1 177.8,47.1 177.8,33.7      159.8,33.7    "></polygon>
		</g>
		<path class="st0" d="M38.3,24.5V11.2H21.8V1H6.4v10.2H0.4v13.3h6.1V32c0,8.3,6.8,15.1,15.1,15.1h0h0.3h16.5V33.7H21.8v-9.3H38.3z"></path>
	</g>
	<g>
		<g>
			<path class="st1" d="M193.3,18.4c0-0.4,0.3-0.6,0.8-0.6c0.1,0,0.3,0,0.4,0.1c0.1,0,0.2,0.1,0.3,0.1v4c0-0.1,0.1-0.1,0.2-0.3     c0.1-0.1,0.2-0.2,0.4-0.4c0.2-0.1,0.4-0.2,0.7-0.3c0.3-0.1,0.6-0.1,1-0.1c0.5,0,0.9,0.1,1.3,0.2c0.4,0.2,0.7,0.4,1,0.7     c0.3,0.3,0.5,0.7,0.7,1.1c0.2,0.4,0.2,0.9,0.2,1.5c0,0.6-0.1,1.1-0.3,1.6c-0.2,0.5-0.4,0.9-0.8,1.2c-0.4,0.3-0.8,0.6-1.3,0.8     c-0.5,0.2-1.2,0.3-1.9,0.3c-0.4,0-0.7,0-1,0s-0.6,0-0.8-0.1c-0.2,0-0.4,0-0.5-0.1c-0.1,0-0.2,0-0.3,0V18.4z M198.7,24.4     c0-0.7-0.2-1.3-0.5-1.8c-0.3-0.4-0.8-0.6-1.5-0.6c-0.3,0-0.6,0.1-0.9,0.2c-0.2,0.1-0.5,0.3-0.6,0.5c-0.2,0.2-0.3,0.4-0.4,0.7     c-0.1,0.3-0.1,0.6-0.1,0.9v2.6c0.1,0,0.2,0.1,0.4,0.1c0.2,0,0.5,0.1,0.9,0.1c0.5,0,0.9-0.1,1.2-0.2c0.3-0.1,0.6-0.3,0.8-0.5     c0.2-0.2,0.4-0.5,0.5-0.8C198.6,25.1,198.7,24.8,198.7,24.4z"></path>
			<path class="st1" d="M204.5,25.9c0.2-0.3,0.3-0.7,0.5-1.1c0.2-0.4,0.3-0.8,0.5-1.2c0.2-0.4,0.3-0.8,0.5-1.1     c0.1-0.4,0.3-0.7,0.4-0.9c0.1-0.2,0.2-0.3,0.3-0.5c0.1-0.1,0.3-0.2,0.6-0.2c0.2,0,0.4,0,0.5,0.1c0.1,0.1,0.2,0.1,0.2,0.2     c-0.1,0.2-0.2,0.5-0.3,0.7c-0.1,0.3-0.2,0.6-0.4,0.9c-0.1,0.3-0.3,0.6-0.4,1c-0.1,0.3-0.3,0.6-0.4,1c-0.3,0.6-0.6,1.3-0.9,1.9     c-0.3,0.6-0.6,1.2-1,1.8c-0.2,0.3-0.4,0.6-0.6,0.9c-0.2,0.3-0.4,0.5-0.6,0.6c-0.2,0.2-0.5,0.3-0.7,0.4c-0.3,0.1-0.6,0.1-0.9,0.1     c-0.2,0-0.4,0-0.6-0.1c-0.2,0-0.3-0.1-0.5-0.1c-0.1,0-0.2-0.1-0.3-0.1c-0.1,0-0.1-0.1-0.1-0.1l0.5-1c0,0,0.2,0.1,0.3,0.2     c0.2,0.1,0.4,0.1,0.6,0.1c0.2,0,0.3,0,0.5-0.1c0.1-0.1,0.3-0.1,0.4-0.3s0.3-0.3,0.4-0.5c0.1-0.2,0.3-0.4,0.4-0.7l0.4-0.7     c-0.1-0.2-0.3-0.4-0.4-0.7c-0.2-0.3-0.4-0.6-0.6-0.9c-0.2-0.3-0.4-0.7-0.6-1c-0.2-0.3-0.4-0.7-0.6-1c-0.2-0.3-0.3-0.6-0.4-0.8     c-0.1-0.2-0.2-0.4-0.2-0.4c-0.1-0.1-0.1-0.2-0.2-0.4c0-0.1-0.1-0.2-0.1-0.4c0-0.2,0.1-0.3,0.2-0.5c0.1-0.1,0.3-0.2,0.6-0.2     c0.2,0,0.3,0,0.4,0.1c0.1,0,0.1,0.1,0.2,0.1c0,0.1,0.2,0.3,0.3,0.7c0.2,0.4,0.4,0.8,0.6,1.3c0.2,0.5,0.5,1,0.8,1.5     C204,25,204.3,25.5,204.5,25.9z"></path>
		</g>
		<g>
			<g>
				<g>
					<path class="st1" d="M238.2,39.2v2.8h2.3v1.3c-0.2,0.1-0.4,0.2-0.6,0.2c-0.2,0.1-0.5,0.1-0.9,0.1c-0.5,0-0.9-0.1-1.3-0.2       c-0.4-0.2-0.7-0.4-1-0.7c-0.3-0.3-0.5-0.6-0.7-1c-0.2-0.4-0.2-0.8-0.2-1.3v0c0-0.5,0.1-0.9,0.2-1.3c0.1-0.4,0.4-0.7,0.6-1       c0.3-0.3,0.6-0.5,1-0.7c0.4-0.2,0.8-0.2,1.2-0.2c0.6,0,1.1,0.1,1.6,0.3c0.5,0.2,0.9,0.5,1.4,0.9l2.5-3       c-0.7-0.6-1.6-1.1-2.5-1.5c-0.9-0.4-2-0.5-3.1-0.5c-1.1,0-2,0.2-2.9,0.5c-0.9,0.4-1.7,0.8-2.3,1.5c-0.7,0.6-1.2,1.4-1.5,2.2       c-0.3,0.8-0.5,1.6-0.5,2.4l-2.7-6.4h-4.4l-3.8,9.1v-9h-4.7l-2.9,4.7l-2.9-4.7h-4.7v3c-0.2-0.4-0.5-0.8-0.8-1.1       c-0.6-0.7-1.3-1.2-2.2-1.6c-0.9-0.4-2-0.6-3.2-0.6c-1,0-2,0.2-2.9,0.5c-0.9,0.4-1.6,0.9-2.3,1.5c-0.6,0.6-1.1,1.4-1.5,2.2       c-0.3,0.8-0.5,1.8-0.5,2.7v0c0,1,0.2,2,0.6,2.8c0.4,0.9,0.9,1.6,1.6,2.2c0.7,0.6,1.5,1.1,2.4,1.4c0.9,0.3,1.9,0.5,3.1,0.5       c1.4,0,2.6-0.2,3.6-0.7c0.5-0.2,0.9-0.5,1.4-0.8l-2.2-2.7c-0.3,0.2-0.6,0.4-0.8,0.5c-0.5,0.2-1,0.3-1.6,0.3       c-0.8,0-1.4-0.2-2-0.5c-0.4-0.3-0.8-0.7-1-1.3h8.4v5.1h4.4v-6.6l3.1,4.8h0.1l3.1-4.8v6.6h7.4l0.7-1.8h4.7l0.7,1.8h4.9l-0.6-1.5       c0.7,0.6,1.4,1,2.3,1.3c0.9,0.3,1.9,0.5,2.9,0.5c1.2,0,2.3-0.2,3.3-0.6c1-0.4,1.9-0.9,2.6-1.5v-6.2H238.2z M196.6,39.2       c0.1-0.7,0.4-1.2,0.8-1.7c0.4-0.4,1-0.7,1.6-0.7c0.7,0,1.2,0.2,1.7,0.7c0.4,0.4,0.7,1,0.8,1.7H196.6z M225,42.2l1.2-3.3       l1.2,3.3H225z"></path>
				</g>
			</g>
		</g>
	</g>
</g>
</svg>
